<?xml version="1.0" encoding="UTF-8" standalone="no" ?>
<!DOCTYPE svg PUBLIC "-//W3C//DTD SVG 1.1//EN" "http://www.w3.org/Graphics/SVG/1.1/DTD/svg11.dtd">
<svg xmlns="http://www.w3.org/2000/svg" xmlns:xlink="http://www.w3.org/1999/xlink" version="1.1" width="1024" height="1024" viewBox="0 0 1024 1024" xml:space="preserve">
<desc>Created with Fabric.js 2.3.6</desc>
<defs>
</defs>
<rect x="-512" y="-512" rx="0" ry="0" width="1024" height="1024" style="stroke: none; stroke-width: 0; stroke-dasharray: none; stroke-linecap: butt; stroke-linejoin: miter; stroke-miterlimit: 4; fill: rgb(46,43,116); fill-rule: nonzero; opacity: 1;" transform="translate(512 512)"/>
<g id="icon-1" transform="translate(512 512) scale(8.24 8.24)" style="">
	<path d="M 30.682 43.235 c 5.739 0 10.407 4.667 10.407 10.407 c 0 5.738 -4.668 10.406 -10.407 10.406 S 20.275 59.38 20.275 53.642 C 20.275 47.902 24.943 43.235 30.682 43.235 z" style="stroke: none; stroke-width: 1; stroke-dasharray: none; stroke-linecap: butt; stroke-linejoin: miter; stroke-miterlimit: 4; fill: rgb(255,255,255); fill-rule: nonzero; opacity: 1;" transform="translate(-19.318 3.6415) translate(-30.682, -53.6415) " stroke-linecap="round" />
	<path d="M 1.598 59.73 c 0 6.418 4.827 11.711 11.05 12.45 c 5.148 14.773 19.2 25.376 35.729 25.376 c 16.522 0 30.575 -10.603 35.725 -25.376 c 6.223 -0.74 11.05 -6.033 11.05 -12.45 c 0 -2.135 -0.536 -4.142 -1.477 -5.902 c -0.958 -0.277 -4.103 -1.423 -10.335 -5.74 c -15.335 -10.615 -44.44 -17.362 -64.714 -11.709 c -2.553 3.248 -4.59 6.92 -5.978 10.898 C 6.426 48.016 1.598 53.311 1.598 59.73 z M 28.359 70.83 c 3.778 0.06 2.85 4.08 2.85 4.08 s 0.031 -2.702 -2.971 -2.702 c -2.611 0 -3.868 4.501 -0.811 6.482 c 3.062 1.979 7.919 -0.722 13.408 -4.593 c 3.456 -2.433 6.771 -2.3 8.324 -0.766 c 1.552 -1.534 4.865 -1.667 8.319 0.766 c 5.49 3.871 10.35 6.572 13.408 4.593 c 3.062 -1.981 1.801 -6.482 -0.812 -6.482 c -2.997 0 -2.97 2.702 -2.97 2.702 s -0.924 -4.021 2.852 -4.08 c 3.87 -0.061 6.727 6.574 2.042 10.017 c -4.933 3.621 -19.425 1.216 -22.84 -2.674 c -3.417 3.89 -17.914 6.295 -22.841 2.674 C 21.631 77.404 24.49 70.77 28.359 70.83 z M 18.95 53.642 c 0 -6.47 5.264 -11.73 11.732 -11.73 c 6.24 0 11.354 4.895 11.709 11.05 c 1.394 -1.868 3.613 -3.019 5.986 -3.019 c 2.371 0 4.588 1.151 5.98 3.02 c 0.355 -6.155 5.47 -11.051 11.709 -11.051 c 6.469 0 11.73 5.261 11.73 11.73 c 0 6.468 -5.262 11.73 -11.73 11.73 c -5.957 0 -10.889 -4.467 -11.629 -10.225 c -0.219 -0.025 -0.419 -0.157 -0.52 -0.369 c -1.013 -2.134 -3.188 -3.511 -5.541 -3.511 c -2.357 0 -4.534 1.377 -5.547 3.511 c -0.101 0.211 -0.301 0.338 -0.517 0.365 c -0.74 5.76 -5.672 10.229 -11.632 10.229 C 24.214 65.372 18.95 60.109 18.95 53.642 z" style="stroke: none; stroke-width: 1; stroke-dasharray: none; stroke-linecap: butt; stroke-linejoin: miter; stroke-miterlimit: 4; fill: rgb(255,255,255); fill-rule: nonzero; opacity: 1;" transform="translate(-1.625 15.943462) translate(-48.375, -65.94346184581258) " stroke-linecap="round" />
	<path d="M 66.066 43.235 c 5.738 0 10.408 4.667 10.408 10.407 c 0 5.738 -4.67 10.406 -10.408 10.406 c -5.739 0 -10.406 -4.668 -10.406 -10.406 C 55.66 47.902 60.327 43.235 66.066 43.235 z" style="stroke: none; stroke-width: 1; stroke-dasharray: none; stroke-linecap: butt; stroke-linejoin: miter; stroke-miterlimit: 4; fill: rgb(255,255,255); fill-rule: nonzero; opacity: 1;" transform="translate(16.067 3.6415) translate(-66.06700000000001, -53.6415) " stroke-linecap="round" />
	<path d="M 93.675 52.515 c -0.958 -0.278 -4.103 -1.424 -10.335 -5.741 c -15.335 -10.613 -44.44 -17.361 -64.714 -11.708 c -0.251 0.07 -0.502 0.14 -0.75 0.214 c 0 0 -9.212 -8.01 7.703 -28.366 c 8.946 -8.814 24.87 -4.4 37.324 3.475 c 0.367 -0.729 0.834 -1.414 1.402 -2.032 c 1.605 -1.746 3.794 -2.763 6.165 -2.863 c 0.642 -0.025 1.178 0.469 1.206 1.108 c 0.026 0.64 -0.47 1.179 -1.109 1.206 c -1.751 0.074 -3.369 0.825 -4.557 2.116 c -0.481 0.524 -0.862 1.113 -1.147 1.743 c 14.627 9.832 26.902 23.348 30.556 31.034 c 0.914 1.649 2.612 5.564 2.309 7.334 c -0.146 1.216 -2.084 2.561 -3.727 2.561 C 93.999 52.597 93.895 52.579 93.675 52.515 z" style="stroke: none; stroke-width: 1; stroke-dasharray: none; stroke-linecap: butt; stroke-linejoin: miter; stroke-miterlimit: 4; fill: rgb(255,255,255); fill-rule: nonzero; opacity: 1;" transform="translate(6.567924 -22.6729) translate(-56.567924156150845, -27.327100062365496) " stroke-linecap="round" />
</g>
</svg>